<?xml version="1.0" encoding="utf-8"?>
<!-- Generator: Adobe Illustrator 16.0.0, SVG Export Plug-In . SVG Version: 6.00 Build 0)  -->
<!DOCTYPE svg PUBLIC "-//W3C//DTD SVG 1.1//EN" "http://www.w3.org/Graphics/SVG/1.1/DTD/svg11.dtd">
<svg version="1.1" id="Layer_1" xmlns="http://www.w3.org/2000/svg" xmlns:xlink="http://www.w3.org/1999/xlink" x="0px" y="0px"
	 width="10px" height="10px" viewBox="0 0 10 10" enable-background="new 0 0 10 10" xml:space="preserve">
<g>
	<path fill="#EE2B2A" d="M5.016,9.484C2.543,9.484,0.531,7.473,0.531,5s2.012-4.484,4.484-4.484S9.5,2.527,9.5,5
		S7.488,9.484,5.016,9.484z"/>
	<path fill="#FFFFFF" d="M5.016,1.016C7.213,1.016,9,2.803,9,5c0,2.197-1.787,3.984-3.984,3.984C2.819,8.984,1.031,7.197,1.031,5
		C1.031,2.803,2.819,1.016,5.016,1.016 M5.016,0.016C2.263,0.016,0.031,2.247,0.031,5s2.231,4.984,4.984,4.984S10,7.753,10,5
		S7.769,0.016,5.016,0.016L5.016,0.016z"/>
</g>
<g>
</g>
<g>
</g>
<g>
</g>
<g>
</g>
<g>
</g>
<g>
</g>
</svg>
